<svg width="375" height="344" viewBox="0 0 375 344" fill="none" xmlns="http://www.w3.org/2000/svg">
<path d="M53.8782 52.9629V106.872H107.335V52.9629H53.8782Z" fill="#FD7E01"/>
<path d="M18.8443 102.431C15.0109 105.272 10.1823 104.397 7.34578 102.431C5.44471 101.049 4.74816 98.8638 4.74862 97.6077V92.3904L21.747 92.39V97.6077C21.7727 99.3453 20.2948 101.341 18.8443 102.431Z" fill="#C66200"/>
<path d="M18.8443 75.043C15.0109 77.8847 10.1823 77.0095 7.34578 75.043C5.44471 73.6613 4.74816 71.4761 4.74862 70.22V65.0027L21.747 65.0023V70.22C21.7727 71.9577 20.2948 73.9529 18.8443 75.043Z" fill="#C66200"/>
<path d="M46.231 102.431C42.3976 105.272 37.569 104.397 34.7325 102.431C32.8314 101.049 32.1349 98.8638 32.1353 97.6077V92.3904L49.1337 92.39V97.6077C49.1594 99.3453 47.6815 101.341 46.231 102.431Z" fill="#C66200"/>
<path d="M46.231 75.043C42.3976 77.8847 37.569 77.0095 34.7325 75.043C32.8314 73.6613 32.1349 71.4761 32.1353 70.22V65.0027L49.1337 65.0023V70.22C49.1594 71.9577 47.6815 73.9529 46.231 75.043Z" fill="#C66200"/>
<ellipse cx="13.174" cy="92.241" rx="8.57117" ry="8.57068" fill="#ED7703"/>
<ellipse cx="13.174" cy="64.8543" rx="8.57117" ry="8.57068" fill="#ED7703"/>
<ellipse cx="40.5626" cy="92.241" rx="8.57117" ry="8.57068" fill="#ED7703"/>
<ellipse cx="40.5626" cy="64.8543" rx="8.57117" ry="8.57068" fill="#ED7703"/>
<path d="M160.87 55.9349V109.844H214.327V55.9349H160.87Z" fill="#FD7E01"/>
<path d="M125.836 105.403C122.003 108.244 117.174 107.369 114.338 105.403C112.437 104.021 111.74 101.836 111.741 100.58V95.3624L128.739 95.362V100.58C128.765 102.317 127.287 104.313 125.836 105.403Z" fill="#C66200"/>
<path d="M125.836 78.0149C122.003 80.8567 117.174 79.9814 114.338 78.0149C112.437 76.6333 111.74 74.4481 111.741 73.1919V67.9747L128.739 67.9743V73.1919C128.765 74.9296 127.287 76.9249 125.836 78.0149Z" fill="#C66200"/>
<path d="M153.223 105.403C149.39 108.244 144.561 107.369 141.724 105.403C139.823 104.021 139.127 101.836 139.127 100.58V95.3624L156.126 95.362V100.58C156.151 102.317 154.673 104.313 153.223 105.403Z" fill="#C66200"/>
<path d="M153.223 78.0149C149.39 80.8567 144.561 79.9814 141.724 78.0149C139.823 76.6333 139.127 74.4481 139.127 73.1919V67.9747L156.126 67.9743V73.1919C156.151 74.9296 154.673 76.9249 153.223 78.0149Z" fill="#C66200"/>
<ellipse cx="120.166" cy="95.213" rx="8.57117" ry="8.57068" fill="#ED7703"/>
<ellipse cx="120.166" cy="67.8263" rx="8.57117" ry="8.57068" fill="#ED7703"/>
<ellipse cx="147.555" cy="95.213" rx="8.57117" ry="8.57068" fill="#ED7703"/>
<ellipse cx="147.555" cy="67.8263" rx="8.57117" ry="8.57068" fill="#ED7703"/>
<path d="M267.87 165.935V219.844H321.327V165.935H267.87Z" fill="#FD7E01"/>
<path d="M232.836 215.403C229.003 218.244 224.174 217.369 221.338 215.403C219.437 214.021 218.74 211.836 218.741 210.58V205.362L235.739 205.362V210.58C235.765 212.317 234.287 214.313 232.836 215.403Z" fill="#C66200"/>
<path d="M232.836 188.015C229.003 190.857 224.174 189.981 221.338 188.015C219.437 186.633 218.74 184.448 218.741 183.192V177.975L235.739 177.974V183.192C235.765 184.93 234.287 186.925 232.836 188.015Z" fill="#C66200"/>
<path d="M260.223 215.403C256.39 218.244 251.561 217.369 248.724 215.403C246.823 214.021 246.127 211.836 246.127 210.58V205.362L263.126 205.362V210.58C263.151 212.317 261.673 214.313 260.223 215.403Z" fill="#C66200"/>
<path d="M260.223 188.015C256.39 190.857 251.561 189.981 248.724 188.015C246.823 186.633 246.127 184.448 246.127 183.192V177.975L263.126 177.974V183.192C263.151 184.93 261.673 186.925 260.223 188.015Z" fill="#C66200"/>
<ellipse cx="227.166" cy="205.213" rx="8.57117" ry="8.57068" fill="#ED7703"/>
<ellipse cx="227.166" cy="177.826" rx="8.57117" ry="8.57068" fill="#ED7703"/>
<ellipse cx="254.555" cy="205.213" rx="8.57117" ry="8.57068" fill="#ED7703"/>
<ellipse cx="254.555" cy="177.826" rx="8.57117" ry="8.57068" fill="#ED7703"/>
<path d="M267.87 218.935V272.844H321.327V218.935H267.87Z" fill="#FD7E01"/>
<path d="M232.836 268.403C229.003 271.244 224.174 270.369 221.338 268.403C219.437 267.021 218.74 264.836 218.741 263.58V258.362L235.739 258.362V263.58C235.765 265.317 234.287 267.313 232.836 268.403Z" fill="#C66200"/>
<path d="M232.836 241.015C229.003 243.857 224.174 242.981 221.338 241.015C219.437 239.633 218.74 237.448 218.741 236.192V230.975L235.739 230.974V236.192C235.765 237.93 234.287 239.925 232.836 241.015Z" fill="#C66200"/>
<path d="M260.223 268.403C256.39 271.244 251.561 270.369 248.724 268.403C246.823 267.021 246.127 264.836 246.127 263.58V258.362L263.126 258.362V263.58C263.151 265.317 261.673 267.313 260.223 268.403Z" fill="#C66200"/>
<path d="M260.223 241.015C256.39 243.857 251.561 242.981 248.724 241.015C246.823 239.633 246.127 237.448 246.127 236.192V230.975L263.126 230.974V236.192C263.151 237.93 261.673 239.925 260.223 241.015Z" fill="#C66200"/>
<ellipse cx="227.166" cy="258.213" rx="8.57117" ry="8.57068" fill="#ED7703"/>
<ellipse cx="227.166" cy="230.826" rx="8.57117" ry="8.57068" fill="#ED7703"/>
<ellipse cx="254.555" cy="258.213" rx="8.57117" ry="8.57068" fill="#ED7703"/>
<ellipse cx="254.555" cy="230.826" rx="8.57117" ry="8.57068" fill="#ED7703"/>
<path d="M374.882 52.9629V106.872H428.338V52.9629H374.882Z" fill="#FD7E01"/>
<path d="M339.848 102.431C336.014 105.272 331.186 104.397 328.349 102.431C326.448 101.049 325.752 98.8638 325.752 97.6077V92.3904L342.75 92.39V97.6077C342.776 99.3453 341.298 101.341 339.848 102.431Z" fill="#C66200"/>
<path d="M339.848 75.043C336.014 77.8847 331.186 77.0095 328.349 75.043C326.448 73.6613 325.752 71.4761 325.752 70.22V65.0027L342.75 65.0023V70.22C342.776 71.9577 341.298 73.9529 339.848 75.043Z" fill="#C66200"/>
<path d="M367.234 102.431C363.401 105.272 358.572 104.397 355.736 102.431C353.835 101.049 353.138 98.8638 353.139 97.6077V92.3904L370.137 92.39V97.6077C370.163 99.3453 368.685 101.341 367.234 102.431Z" fill="#C66200"/>
<path d="M367.234 75.043C363.401 77.8847 358.572 77.0095 355.736 75.043C353.835 73.6613 353.138 71.4761 353.139 70.22V65.0027L370.137 65.0023V70.22C370.163 71.9577 368.685 73.9529 367.234 75.043Z" fill="#C66200"/>
<ellipse cx="334.177" cy="92.241" rx="8.57117" ry="8.57068" fill="#ED7703"/>
<ellipse cx="334.177" cy="64.8543" rx="8.57117" ry="8.57068" fill="#ED7703"/>
<ellipse cx="361.566" cy="92.241" rx="8.57117" ry="8.57068" fill="#ED7703"/>
<ellipse cx="361.566" cy="64.8543" rx="8.57117" ry="8.57068" fill="#ED7703"/>
<path d="M374.882 106.459V160.368H428.338V106.459H374.882Z" fill="#FD7E01"/>
<path d="M339.848 155.926C336.014 158.768 331.186 157.893 328.349 155.926C326.448 154.545 325.752 152.36 325.752 151.103V145.886L342.75 145.886V151.103C342.776 152.841 341.298 154.836 339.848 155.926Z" fill="#C66200"/>
<path d="M339.848 128.539C336.014 131.38 331.186 130.505 328.349 128.539C326.448 127.157 325.752 124.972 325.752 123.716V118.498L342.75 118.498V123.716C342.776 125.453 341.298 127.449 339.848 128.539Z" fill="#C66200"/>
<path d="M367.234 155.926C363.401 158.768 358.572 157.893 355.736 155.926C353.835 154.545 353.138 152.36 353.139 151.103V145.886L370.137 145.886V151.103C370.163 152.841 368.685 154.836 367.234 155.926Z" fill="#C66200"/>
<path d="M367.234 128.539C363.401 131.38 358.572 130.505 355.736 128.539C353.835 127.157 353.138 124.972 353.139 123.716V118.498L370.137 118.498V123.716C370.163 125.453 368.685 127.449 367.234 128.539Z" fill="#C66200"/>
<ellipse cx="334.177" cy="145.737" rx="8.57117" ry="8.57068" fill="#ED7703"/>
<ellipse cx="334.177" cy="118.35" rx="8.57117" ry="8.57068" fill="#ED7703"/>
<ellipse cx="361.566" cy="145.737" rx="8.57117" ry="8.57068" fill="#ED7703"/>
<ellipse cx="361.566" cy="118.35" rx="8.57117" ry="8.57068" fill="#ED7703"/>
<path d="M53.8782 -0.532818V53.3767H107.335V-0.532818H53.8782Z" fill="#FD7E01"/>
<path d="M18.8443 48.9349C15.0109 51.7767 10.1823 50.9014 7.34578 48.9349C5.44471 47.5533 4.74816 45.3681 4.74862 44.1119V38.8947L21.747 38.8942V44.1119C21.7727 45.8496 20.2948 47.8448 18.8443 48.9349Z" fill="#C66200"/>
<path d="M18.8443 21.5472C15.0109 24.389 10.1823 23.5137 7.34578 21.5472C5.44471 20.1656 4.74816 17.9804 4.74862 16.7242V11.507L21.747 11.5065V16.7242C21.7727 18.4619 20.2948 20.4571 18.8443 21.5472Z" fill="#C66200"/>
<path d="M46.231 48.9349C42.3976 51.7767 37.569 50.9014 34.7325 48.9349C32.8314 47.5533 32.1349 45.3681 32.1353 44.1119V38.8947L49.1337 38.8942V44.1119C49.1594 45.8496 47.6815 47.8448 46.231 48.9349Z" fill="#C66200"/>
<path d="M46.231 21.5472C42.3976 24.389 37.569 23.5137 34.7325 21.5472C32.8314 20.1656 32.1349 17.9804 32.1353 16.7242V11.507L49.1337 11.5065V16.7242C49.1594 18.4619 47.6815 20.4571 46.231 21.5472Z" fill="#C66200"/>
<ellipse cx="13.174" cy="38.7453" rx="8.57117" ry="8.57068" fill="#ED7703"/>
<ellipse cx="13.174" cy="11.3586" rx="8.57117" ry="8.57068" fill="#ED7703"/>
<ellipse cx="40.5626" cy="38.7453" rx="8.57117" ry="8.57068" fill="#ED7703"/>
<ellipse cx="40.5626" cy="11.3586" rx="8.57117" ry="8.57068" fill="#ED7703"/>
<path d="M163.952 -3.61509V53.3767H217.409V-3.61509H163.952Z" fill="#FD7E01"/>
<path d="M125.836 48.9349C122.003 51.7767 117.174 50.9014 114.338 48.9349C112.437 47.5533 111.74 45.3681 111.741 44.1119V38.8947L128.739 38.8942V44.1119C128.765 45.8496 127.287 47.8448 125.836 48.9349Z" fill="#C66200"/>
<path d="M125.836 21.5472C122.003 24.389 117.174 23.5137 114.338 21.5472C112.437 20.1656 111.74 17.9804 111.741 16.7242V11.507L128.739 11.5065V16.7242C128.765 18.4619 127.287 20.4571 125.836 21.5472Z" fill="#C66200"/>
<path d="M153.223 48.9349C149.39 51.7767 144.561 50.9014 141.724 48.9349C139.823 47.5533 139.127 45.3681 139.127 44.1119V38.8947L156.126 38.8942V44.1119C156.151 45.8496 154.673 47.8448 153.223 48.9349Z" fill="#C66200"/>
<path d="M153.223 21.5472C149.39 24.389 144.561 23.5137 141.724 21.5472C139.823 20.1656 139.127 17.9804 139.127 16.7242V11.507L156.126 11.5065V16.7242C156.151 18.4619 154.673 20.4571 153.223 21.5472Z" fill="#C66200"/>
<ellipse cx="120.166" cy="38.7453" rx="8.57117" ry="8.57068" fill="#ED7703"/>
<ellipse cx="120.166" cy="11.3586" rx="8.57117" ry="8.57068" fill="#ED7703"/>
<ellipse cx="147.555" cy="38.7453" rx="8.57117" ry="8.57068" fill="#ED7703"/>
<ellipse cx="147.555" cy="11.3586" rx="8.57117" ry="8.57068" fill="#ED7703"/>
<path d="M270.952 106.385V163.377H324.409V106.385H270.952Z" fill="#FD7E01"/>
<path d="M232.836 158.935C229.003 161.777 224.174 160.901 221.338 158.935C219.437 157.553 218.74 155.368 218.741 154.112V148.895L235.739 148.894V154.112C235.765 155.85 234.287 157.845 232.836 158.935Z" fill="#C66200"/>
<path d="M232.836 131.547C229.003 134.389 224.174 133.514 221.338 131.547C219.437 130.166 218.74 127.98 218.741 126.724V121.507L235.739 121.507V126.724C235.765 128.462 234.287 130.457 232.836 131.547Z" fill="#C66200"/>
<path d="M260.223 158.935C256.39 161.777 251.561 160.901 248.724 158.935C246.823 157.553 246.127 155.368 246.127 154.112V148.895L263.126 148.894V154.112C263.151 155.85 261.673 157.845 260.223 158.935Z" fill="#C66200"/>
<path d="M260.223 131.547C256.39 134.389 251.561 133.514 248.724 131.547C246.823 130.166 246.127 127.98 246.127 126.724V121.507L263.126 121.507V126.724C263.151 128.462 261.673 130.457 260.223 131.547Z" fill="#C66200"/>
<ellipse cx="227.166" cy="148.745" rx="8.57117" ry="8.57068" fill="#ED7703"/>
<ellipse cx="227.166" cy="121.359" rx="8.57117" ry="8.57068" fill="#ED7703"/>
<ellipse cx="254.555" cy="148.745" rx="8.57117" ry="8.57068" fill="#ED7703"/>
<ellipse cx="254.555" cy="121.359" rx="8.57117" ry="8.57068" fill="#ED7703"/>
<path d="M374.882 -0.532818V53.3767H428.338V-0.532818H374.882Z" fill="#FD7E01"/>
<path d="M339.848 48.9349C336.014 51.7767 331.186 50.9014 328.349 48.9349C326.448 47.5533 325.752 45.3681 325.752 44.1119V38.8947L342.75 38.8942V44.1119C342.776 45.8496 341.298 47.8448 339.848 48.9349Z" fill="#C66200"/>
<path d="M339.848 21.5472C336.014 24.389 331.186 23.5137 328.349 21.5472C326.448 20.1656 325.752 17.9804 325.752 16.7242V11.507L342.75 11.5065V16.7242C342.776 18.4619 341.298 20.4571 339.848 21.5472Z" fill="#C66200"/>
<path d="M367.234 48.9349C363.401 51.7767 358.572 50.9014 355.736 48.9349C353.835 47.5533 353.138 45.3681 353.139 44.1119V38.8947L370.137 38.8942V44.1119C370.163 45.8496 368.685 47.8448 367.234 48.9349Z" fill="#C66200"/>
<path d="M367.234 21.5472C363.401 24.389 358.572 23.5137 355.736 21.5472C353.835 20.1656 353.138 17.9804 353.139 16.7242V11.507L370.137 11.5065V16.7242C370.163 18.4619 368.685 20.4571 367.234 21.5472Z" fill="#C66200"/>
<ellipse cx="334.177" cy="38.7453" rx="8.57117" ry="8.57068" fill="#ED7703"/>
<ellipse cx="334.177" cy="11.3586" rx="8.57117" ry="8.57068" fill="#ED7703"/>
<ellipse cx="361.566" cy="38.7453" rx="8.57117" ry="8.57068" fill="#ED7703"/>
<ellipse cx="361.566" cy="11.3586" rx="8.57117" ry="8.57068" fill="#ED7703"/>
<g opacity="0.998599">
<path d="M162.288 109.55V164.839H217.448V109.55H162.288Z" fill="#FF2D55"/>
<path d="M125.353 159.946C121.422 162.861 116.47 161.963 113.561 159.946C111.611 158.529 110.897 156.288 110.897 155V149.649L128.33 149.649V155C128.357 156.782 126.841 158.828 125.353 159.946Z" fill="#DD002A"/>
<path d="M125.353 131.858C121.422 134.773 116.47 133.875 113.561 131.858C111.611 130.441 110.897 128.2 110.897 126.912V121.561L128.33 121.561V126.912C128.357 128.694 126.841 130.74 125.353 131.858Z" fill="#DD002A"/>
<path d="M153.441 159.946C149.51 162.861 144.558 161.963 141.648 159.946C139.699 158.529 138.984 156.288 138.985 155V149.649L156.418 149.649V155C156.445 156.782 154.929 158.828 153.441 159.946Z" fill="#DD002A"/>
<path d="M153.441 131.858C149.51 134.773 144.558 133.875 141.648 131.858C139.699 130.441 138.984 128.2 138.985 126.912V121.561L156.418 121.561V126.912C156.445 128.694 154.929 130.74 153.441 131.858Z" fill="#DD002A"/>
<ellipse cx="119.539" cy="149.497" rx="8.79044" ry="8.78994" fill="#FF5F7D"/>
<ellipse cx="119.539" cy="121.409" rx="8.79044" ry="8.78994" fill="#FF5F7D"/>
<ellipse cx="147.627" cy="149.497" rx="8.79044" ry="8.78994" fill="#FF5F7D"/>
<ellipse cx="147.627" cy="121.409" rx="8.79044" ry="8.78994" fill="#FF5F7D"/>
</g>
<g opacity="0.998599">
<path d="M269.28 -2.58968V52.699H322.272V-2.58968H269.28Z" fill="#FF2D55"/>
<path d="M232.345 49.9734C228.414 52.8879 223.462 51.9902 220.553 49.9734C218.603 48.5565 217.888 46.3153 217.889 45.027V39.6763L235.322 39.6759V45.027C235.349 46.8092 233.833 48.8554 232.345 49.9734Z" fill="#DD002A"/>
<path d="M232.345 21.8855C228.414 24.8 223.462 23.9023 220.553 21.8855C218.603 20.4686 217.888 18.2274 217.889 16.9391V11.5884L235.322 11.588V16.9391C235.349 18.7213 233.833 20.7675 232.345 21.8855Z" fill="#DD002A"/>
<path d="M260.433 49.9734C256.502 52.8879 251.55 51.9902 248.64 49.9734C246.691 48.5565 245.976 46.3153 245.977 45.027V39.6763L263.41 39.6759V45.027C263.436 46.8092 261.921 48.8554 260.433 49.9734Z" fill="#DD002A"/>
<path d="M260.433 21.8855C256.502 24.8 251.55 23.9023 248.64 21.8855C246.691 20.4686 245.976 18.2274 245.977 16.9391V11.5884L263.41 11.588V16.9391C263.436 18.7213 261.921 20.7675 260.433 21.8855Z" fill="#DD002A"/>
<ellipse cx="226.531" cy="39.5241" rx="8.79044" ry="8.78994" fill="#FF5F7D"/>
<ellipse cx="226.531" cy="11.4363" rx="8.79044" ry="8.78994" fill="#FF5F7D"/>
<ellipse cx="254.619" cy="39.5241" rx="8.79044" ry="8.78994" fill="#FF5F7D"/>
<ellipse cx="254.619" cy="11.4363" rx="8.79044" ry="8.78994" fill="#FF5F7D"/>
</g>
<g opacity="0.998599">
<path d="M269.28 52.4103V107.699H322.272V52.4103H269.28Z" fill="#FF2D55"/>
<path d="M232.345 104.973C228.414 107.888 223.462 106.99 220.553 104.973C218.603 103.556 217.888 101.315 217.889 100.027V94.6763L235.322 94.6759V100.027C235.349 101.809 233.833 103.855 232.345 104.973Z" fill="#DD002A"/>
<path d="M232.345 76.8855C228.414 79.8 223.462 78.9023 220.553 76.8855C218.603 75.4686 217.888 73.2274 217.889 71.9391V66.5884L235.322 66.588V71.9391C235.349 73.7213 233.833 75.7676 232.345 76.8855Z" fill="#DD002A"/>
<path d="M260.433 104.973C256.502 107.888 251.55 106.99 248.64 104.973C246.691 103.556 245.976 101.315 245.977 100.027V94.6763L263.41 94.6759V100.027C263.436 101.809 261.921 103.855 260.433 104.973Z" fill="#DD002A"/>
<path d="M260.433 76.8855C256.502 79.8 251.55 78.9023 248.64 76.8855C246.691 75.4686 245.976 73.2274 245.977 71.9391V66.5884L263.41 66.588V71.9391C263.436 73.7213 261.921 75.7676 260.433 76.8855Z" fill="#DD002A"/>
<ellipse cx="226.531" cy="94.5241" rx="8.79044" ry="8.78994" fill="#FF5F7D"/>
<ellipse cx="226.531" cy="66.4363" rx="8.79044" ry="8.78994" fill="#FF5F7D"/>
<ellipse cx="254.619" cy="94.5241" rx="8.79044" ry="8.78994" fill="#FF5F7D"/>
<ellipse cx="254.619" cy="66.4363" rx="8.79044" ry="8.78994" fill="#FF5F7D"/>
</g>
<g opacity="0.998599">
<path d="M55.7441 104.625V160.473H109.273V104.625H55.7441Z" fill="#0EDB43"/>
<path d="M18.4359 157.722C14.4647 160.666 9.46254 159.759 6.524 157.722C4.55458 156.291 3.83299 154.027 3.83347 152.725V147.321L21.443 147.32V152.725C21.4697 154.526 19.9386 156.593 18.4359 157.722Z" fill="#07A631"/>
<path d="M18.4359 129.35C14.4647 132.294 9.46254 131.387 6.524 129.35C4.55458 127.918 3.83299 125.655 3.83347 124.353V118.949L21.443 118.948V124.353C21.4697 126.154 19.9386 128.22 18.4359 129.35Z" fill="#07A631"/>
<path d="M46.809 157.722C42.8378 160.666 37.8356 159.759 34.897 157.722C32.9276 156.291 32.206 154.027 32.2065 152.725V147.321L49.8161 147.32V152.725C49.8427 154.526 48.3117 156.593 46.809 157.722Z" fill="#07A631"/>
<path d="M46.809 129.35C42.8378 132.294 37.8356 131.387 34.897 129.35C32.9276 127.918 32.206 125.655 32.2065 124.353V118.949L49.8161 118.948V124.353C49.8427 126.154 48.3117 128.22 46.809 129.35Z" fill="#07A631"/>
<ellipse cx="12.5629" cy="147.166" rx="8.87935" ry="8.87884" fill="#00D035"/>
<ellipse cx="12.5629" cy="118.794" rx="8.87935" ry="8.87884" fill="#00D035"/>
<ellipse cx="40.936" cy="147.166" rx="8.87935" ry="8.87884" fill="#00D035"/>
<ellipse cx="40.936" cy="118.794" rx="8.87935" ry="8.87884" fill="#00D035"/>
</g>
<g opacity="0.998599">
<path d="M323.744 213.625V269.473H377.273V213.625H323.744Z" fill="#0EDB43"/>
<path d="M286.436 266.722C282.465 269.666 277.463 268.759 274.524 266.722C272.555 265.291 271.833 263.027 271.833 261.725V256.321L289.443 256.32V261.725C289.47 263.526 287.939 265.593 286.436 266.722Z" fill="#07A631"/>
<path d="M286.436 238.35C282.465 241.294 277.463 240.387 274.524 238.35C272.555 236.918 271.833 234.655 271.833 233.353V227.949L289.443 227.948V233.353C289.47 235.154 287.939 237.22 286.436 238.35Z" fill="#07A631"/>
<path d="M314.809 266.722C310.838 269.666 305.836 268.759 302.897 266.722C300.928 265.291 300.206 263.027 300.207 261.725V256.321L317.816 256.32V261.725C317.843 263.526 316.312 265.593 314.809 266.722Z" fill="#07A631"/>
<path d="M314.809 238.35C310.838 241.294 305.836 240.387 302.897 238.35C300.928 236.918 300.206 234.655 300.207 233.353V227.949L317.816 227.948V233.353C317.843 235.154 316.312 237.22 314.809 238.35Z" fill="#07A631"/>
<ellipse cx="280.563" cy="256.166" rx="8.87935" ry="8.87884" fill="#00D035"/>
<ellipse cx="280.563" cy="227.794" rx="8.87935" ry="8.87884" fill="#00D035"/>
<ellipse cx="308.936" cy="256.166" rx="8.87935" ry="8.87884" fill="#00D035"/>
<ellipse cx="308.936" cy="227.794" rx="8.87935" ry="8.87884" fill="#00D035"/>
</g>
<g opacity="0.998599">
<path d="M55.7441 160.625V216.473H109.273V160.625H55.7441Z" fill="#0EDB43"/>
<path d="M18.4359 213.722C14.4647 216.666 9.46254 215.759 6.524 213.722C4.55458 212.291 3.83299 210.027 3.83347 208.725V203.321L21.443 203.32V208.725C21.4697 210.526 19.9386 212.593 18.4359 213.722Z" fill="#07A631"/>
<path d="M18.4359 185.35C14.4647 188.294 9.46254 187.387 6.524 185.35C4.55458 183.918 3.83299 181.655 3.83347 180.353V174.949L21.443 174.948V180.353C21.4697 182.154 19.9386 184.22 18.4359 185.35Z" fill="#07A631"/>
<path d="M46.809 213.722C42.8378 216.666 37.8356 215.759 34.897 213.722C32.9276 212.291 32.206 210.027 32.2065 208.725V203.321L49.8161 203.32V208.725C49.8427 210.526 48.3117 212.593 46.809 213.722Z" fill="#07A631"/>
<path d="M46.809 185.35C42.8378 188.294 37.8356 187.387 34.897 185.35C32.9276 183.918 32.206 181.655 32.2065 180.353V174.949L49.8161 174.948V180.353C49.8427 182.154 48.3117 184.22 46.809 185.35Z" fill="#07A631"/>
<ellipse cx="12.5629" cy="203.166" rx="8.87935" ry="8.87884" fill="#00D035"/>
<ellipse cx="12.5629" cy="174.794" rx="8.87935" ry="8.87884" fill="#00D035"/>
<ellipse cx="40.936" cy="203.166" rx="8.87935" ry="8.87884" fill="#00D035"/>
<ellipse cx="40.936" cy="174.794" rx="8.87935" ry="8.87884" fill="#00D035"/>
</g>
<g opacity="0.998599">
<path d="M323.744 269.625V325.473H377.273V269.625H323.744Z" fill="#0EDB43"/>
<path d="M286.436 322.722C282.465 325.666 277.463 324.759 274.524 322.722C272.555 321.291 271.833 319.027 271.833 317.725V312.321L289.443 312.32V317.725C289.47 319.526 287.939 321.593 286.436 322.722Z" fill="#07A631"/>
<path d="M286.436 294.35C282.465 297.294 277.463 296.387 274.524 294.35C272.555 292.919 271.833 290.655 271.833 289.353V283.949L289.443 283.948V289.353C289.47 291.154 287.939 293.221 286.436 294.35Z" fill="#07A631"/>
<path d="M314.809 322.722C310.838 325.666 305.836 324.759 302.897 322.722C300.928 321.291 300.206 319.027 300.207 317.725V312.321L317.816 312.32V317.725C317.843 319.526 316.312 321.593 314.809 322.722Z" fill="#07A631"/>
<path d="M314.809 294.35C310.838 297.294 305.836 296.387 302.897 294.35C300.928 292.919 300.206 290.655 300.207 289.353V283.949L317.816 283.948V289.353C317.843 291.154 316.312 293.221 314.809 294.35Z" fill="#07A631"/>
<ellipse cx="280.563" cy="312.167" rx="8.87935" ry="8.87884" fill="#00D035"/>
<ellipse cx="280.563" cy="283.794" rx="8.87935" ry="8.87884" fill="#00D035"/>
<ellipse cx="308.936" cy="312.167" rx="8.87935" ry="8.87884" fill="#00D035"/>
<ellipse cx="308.936" cy="283.794" rx="8.87935" ry="8.87884" fill="#00D035"/>
</g>
<g opacity="0.998599">
<path d="M55.7441 216.625V272.473H109.273V216.625H55.7441Z" fill="#0EDB43"/>
<path d="M18.4359 269.722C14.4647 272.666 9.46254 271.759 6.524 269.722C4.55458 268.291 3.83299 266.027 3.83347 264.725V259.321L21.443 259.32V264.725C21.4697 266.526 19.9386 268.593 18.4359 269.722Z" fill="#07A631"/>
<path d="M18.4359 241.35C14.4647 244.294 9.46254 243.387 6.524 241.35C4.55458 239.918 3.83299 237.655 3.83347 236.353V230.949L21.443 230.948V236.353C21.4697 238.154 19.9386 240.22 18.4359 241.35Z" fill="#07A631"/>
<path d="M46.809 269.722C42.8378 272.666 37.8356 271.759 34.897 269.722C32.9276 268.291 32.206 266.027 32.2065 264.725V259.321L49.8161 259.32V264.725C49.8427 266.526 48.3117 268.593 46.809 269.722Z" fill="#07A631"/>
<path d="M46.809 241.35C42.8378 244.294 37.8356 243.387 34.897 241.35C32.9276 239.918 32.206 237.655 32.2065 236.353V230.949L49.8161 230.948V236.353C49.8427 238.154 48.3117 240.22 46.809 241.35Z" fill="#07A631"/>
<ellipse cx="12.5629" cy="259.166" rx="8.87935" ry="8.87884" fill="#00D035"/>
<ellipse cx="12.5629" cy="230.794" rx="8.87935" ry="8.87884" fill="#00D035"/>
<ellipse cx="40.936" cy="259.166" rx="8.87935" ry="8.87884" fill="#00D035"/>
<ellipse cx="40.936" cy="230.794" rx="8.87935" ry="8.87884" fill="#00D035"/>
</g>
<g opacity="0.998599">
<path d="M216.232 -2.36621V53.4817H269.761V-2.36621H216.232Z" fill="#0EDB43"/>
<path d="M178.924 50.7304C174.953 53.6743 169.95 52.7676 167.012 50.7304C165.042 49.2991 164.321 47.0353 164.321 45.734V40.3292L181.931 40.3287V45.734C181.957 47.5341 180.426 49.6011 178.924 50.7304Z" fill="#07A631"/>
<path d="M178.924 22.3583C174.953 25.3023 169.95 24.3955 167.012 22.3583C165.042 20.927 164.321 18.6632 164.321 17.3619V11.9571L181.931 11.9566V17.3619C181.957 19.1621 180.426 21.229 178.924 22.3583Z" fill="#07A631"/>
<path d="M207.297 50.7304C203.326 53.6743 198.323 52.7676 195.385 50.7304C193.415 49.2991 192.694 47.0353 192.694 45.734V40.3292L210.304 40.3287V45.734C210.331 47.5341 208.799 49.6011 207.297 50.7304Z" fill="#07A631"/>
<path d="M207.297 22.3583C203.326 25.3023 198.323 24.3955 195.385 22.3583C193.415 20.927 192.694 18.6632 192.694 17.3619V11.9571L210.304 11.9566V17.3619C210.331 19.1621 208.799 21.229 207.297 22.3583Z" fill="#07A631"/>
<ellipse cx="173.051" cy="40.175" rx="8.87935" ry="8.87884" fill="#00D035"/>
<ellipse cx="173.051" cy="11.8029" rx="8.87935" ry="8.87884" fill="#00D035"/>
<ellipse cx="201.424" cy="40.175" rx="8.87935" ry="8.87884" fill="#00D035"/>
<ellipse cx="201.424" cy="11.8029" rx="8.87935" ry="8.87884" fill="#00D035"/>
</g>
<g opacity="0.998599">
<path d="M216.232 52.1202V107.968H269.761V52.1202H216.232Z" fill="#0EDB43"/>
<path d="M178.924 105.217C174.953 108.161 169.95 107.254 167.012 105.217C165.042 103.785 164.321 101.522 164.321 100.22V94.8156L181.931 94.8151V100.22C181.957 102.021 180.426 104.087 178.924 105.217Z" fill="#07A631"/>
<path d="M178.924 76.8447C174.953 79.7887 169.95 78.8819 167.012 76.8447C165.042 75.4134 164.321 73.1496 164.321 71.8483V66.4435L181.931 66.443V71.8483C181.957 73.6485 180.426 75.7154 178.924 76.8447Z" fill="#07A631"/>
<path d="M207.297 105.217C203.326 108.161 198.323 107.254 195.385 105.217C193.415 103.785 192.694 101.522 192.694 100.22V94.8156L210.304 94.8151V100.22C210.331 102.021 208.799 104.087 207.297 105.217Z" fill="#07A631"/>
<path d="M207.297 76.8447C203.326 79.7887 198.323 78.8819 195.385 76.8447C193.415 75.4134 192.694 73.1496 192.694 71.8483V66.4435L210.304 66.443V71.8483C210.331 73.6485 208.799 75.7154 207.297 76.8447Z" fill="#07A631"/>
<ellipse cx="173.051" cy="94.6614" rx="8.87935" ry="8.87884" fill="#00D035"/>
<ellipse cx="173.051" cy="66.2893" rx="8.87935" ry="8.87884" fill="#00D035"/>
<ellipse cx="201.424" cy="94.6614" rx="8.87935" ry="8.87884" fill="#00D035"/>
<ellipse cx="201.424" cy="66.2893" rx="8.87935" ry="8.87884" fill="#00D035"/>
</g>
<g opacity="0.998599">
<path d="M162.232 163.12V218.968H215.761V163.12H162.232Z" fill="#0EDB43"/>
<path d="M124.924 216.217C120.953 219.161 115.95 218.254 113.012 216.217C111.042 214.785 110.321 212.522 110.321 211.22V205.816L127.931 205.815V211.22C127.957 213.021 126.426 215.087 124.924 216.217Z" fill="#07A631"/>
<path d="M124.924 187.845C120.953 190.789 115.95 189.882 113.012 187.845C111.042 186.413 110.321 184.15 110.321 182.848V177.443L127.931 177.443V182.848C127.957 184.648 126.426 186.715 124.924 187.845Z" fill="#07A631"/>
<path d="M153.297 216.217C149.326 219.161 144.323 218.254 141.385 216.217C139.415 214.785 138.694 212.522 138.694 211.22V205.816L156.304 205.815V211.22C156.331 213.021 154.799 215.087 153.297 216.217Z" fill="#07A631"/>
<path d="M153.297 187.845C149.326 190.789 144.323 189.882 141.385 187.845C139.415 186.413 138.694 184.15 138.694 182.848V177.443L156.304 177.443V182.848C156.331 184.648 154.799 186.715 153.297 187.845Z" fill="#07A631"/>
<ellipse cx="119.051" cy="205.661" rx="8.87935" ry="8.87884" fill="#00D035"/>
<ellipse cx="119.051" cy="177.289" rx="8.87935" ry="8.87884" fill="#00D035"/>
<ellipse cx="147.424" cy="205.661" rx="8.87935" ry="8.87884" fill="#00D035"/>
<ellipse cx="147.424" cy="177.289" rx="8.87935" ry="8.87884" fill="#00D035"/>
</g>
<g opacity="0.998599">
<path d="M162.232 219.12V274.968H215.761V219.12H162.232Z" fill="#0EDB43"/>
<path d="M124.924 272.217C120.953 275.161 115.95 274.254 113.012 272.217C111.042 270.785 110.321 268.522 110.321 267.22V261.816L127.931 261.815V267.22C127.957 269.021 126.426 271.087 124.924 272.217Z" fill="#07A631"/>
<path d="M124.924 243.845C120.953 246.789 115.95 245.882 113.012 243.845C111.042 242.413 110.321 240.15 110.321 238.848V233.443L127.931 233.443V238.848C127.957 240.648 126.426 242.715 124.924 243.845Z" fill="#07A631"/>
<path d="M153.297 272.217C149.326 275.161 144.323 274.254 141.385 272.217C139.415 270.785 138.694 268.522 138.694 267.22V261.816L156.304 261.815V267.22C156.331 269.021 154.799 271.087 153.297 272.217Z" fill="#07A631"/>
<path d="M153.297 243.845C149.326 246.789 144.323 245.882 141.385 243.845C139.415 242.413 138.694 240.15 138.694 238.848V233.443L156.304 233.443V238.848C156.331 240.648 154.799 242.715 153.297 243.845Z" fill="#07A631"/>
<ellipse cx="119.051" cy="261.661" rx="8.87935" ry="8.87884" fill="#00D035"/>
<ellipse cx="119.051" cy="233.289" rx="8.87935" ry="8.87884" fill="#00D035"/>
<ellipse cx="147.424" cy="261.661" rx="8.87935" ry="8.87884" fill="#00D035"/>
<ellipse cx="147.424" cy="233.289" rx="8.87935" ry="8.87884" fill="#00D035"/>
</g>
<g opacity="0.998599">
<path d="M162.232 275.12V330.968H215.761V275.12H162.232Z" fill="#0EDB43"/>
<path d="M124.924 328.217C120.953 331.161 115.95 330.254 113.012 328.217C111.042 326.785 110.321 324.522 110.321 323.22V317.816L127.931 317.815V323.22C127.957 325.021 126.426 327.087 124.924 328.217Z" fill="#07A631"/>
<path d="M124.924 299.845C120.953 302.789 115.95 301.882 113.012 299.845C111.042 298.413 110.321 296.15 110.321 294.848V289.443L127.931 289.443V294.848C127.957 296.648 126.426 298.715 124.924 299.845Z" fill="#07A631"/>
<path d="M153.297 328.217C149.326 331.161 144.323 330.254 141.385 328.217C139.415 326.785 138.694 324.522 138.694 323.22V317.816L156.304 317.815V323.22C156.331 325.021 154.799 327.087 153.297 328.217Z" fill="#07A631"/>
<path d="M153.297 299.845C149.326 302.789 144.323 301.882 141.385 299.845C139.415 298.413 138.694 296.15 138.694 294.848V289.443L156.304 289.443V294.848C156.331 296.648 154.799 298.715 153.297 299.845Z" fill="#07A631"/>
<ellipse cx="119.051" cy="317.661" rx="8.87935" ry="8.87884" fill="#00D035"/>
<ellipse cx="119.051" cy="289.289" rx="8.87935" ry="8.87884" fill="#00D035"/>
<ellipse cx="147.424" cy="317.661" rx="8.87935" ry="8.87884" fill="#00D035"/>
<ellipse cx="147.424" cy="289.289" rx="8.87935" ry="8.87884" fill="#00D035"/>
</g>
<g opacity="0.998599">
<path d="M322.798 159.543V214.722H376.56V159.543H322.798Z" fill="#0023FF"/>
<path d="M285.936 211.129C282.013 214.038 277.07 213.142 274.167 211.129C272.221 209.715 271.508 207.478 271.509 206.193V200.853L288.907 200.852V206.193C288.934 207.971 287.421 210.014 285.936 211.129Z" fill="#001396"/>
<path d="M285.936 183.096C282.013 186.005 277.07 185.109 274.167 183.096C272.221 181.682 271.508 179.445 271.509 178.159V172.819L288.907 172.819V178.159C288.934 179.938 287.421 181.98 285.936 183.096Z" fill="#001396"/>
<path d="M313.97 211.129C310.046 214.038 305.104 213.142 302.2 211.129C300.254 209.715 299.541 207.478 299.542 206.193V200.853L316.941 200.852V206.193C316.967 207.971 315.454 210.014 313.97 211.129Z" fill="#001396"/>
<path d="M313.97 183.096C310.046 186.005 305.104 185.109 302.2 183.096C300.254 181.682 299.541 179.445 299.542 178.159V172.819L316.941 172.819V178.159C316.967 179.938 315.454 181.98 313.97 183.096Z" fill="#001396"/>
<ellipse cx="280.134" cy="200.7" rx="8.77302" ry="8.77252" fill="#2641FF"/>
<ellipse cx="280.134" cy="172.668" rx="8.77302" ry="8.77252" fill="#2641FF"/>
<ellipse cx="308.167" cy="200.7" rx="8.77302" ry="8.77252" fill="#2641FF"/>
<ellipse cx="308.167" cy="172.668" rx="8.77302" ry="8.77252" fill="#2641FF"/>
</g>
<g opacity="0.998599">
<path d="M108.787 106.164V161.343H161.675V106.164H108.787Z" fill="#0023FF"/>
<path d="M71.9248 158.624C68.0012 161.533 63.0589 160.637 60.1555 158.624C58.2097 157.21 57.4968 154.973 57.4972 153.688V148.348L74.8959 148.347V153.688C74.9222 155.466 73.4095 157.508 71.9248 158.624Z" fill="#001396"/>
<path d="M71.9248 130.591C68.0012 133.5 63.0589 132.604 60.1555 130.591C58.2097 129.177 57.4968 126.94 57.4972 125.654V120.314L74.8959 120.314V125.654C74.9222 127.433 73.4095 129.475 71.9248 130.591Z" fill="#001396"/>
<path d="M99.958 158.624C96.0344 161.533 91.0921 160.637 88.1888 158.624C86.2429 157.21 85.53 154.973 85.5304 153.688V148.348L102.929 148.347V153.688C102.955 155.466 101.443 157.508 99.958 158.624Z" fill="#001396"/>
<path d="M99.958 130.591C96.0344 133.5 91.0921 132.604 88.1888 130.591C86.2429 129.177 85.53 126.94 85.5304 125.654V120.314L102.929 120.314V125.654C102.955 127.433 101.443 129.475 99.958 130.591Z" fill="#001396"/>
<ellipse cx="66.1224" cy="148.195" rx="8.77302" ry="8.77252" fill="#2641FF"/>
<ellipse cx="66.1224" cy="120.163" rx="8.77302" ry="8.77252" fill="#2641FF"/>
<ellipse cx="94.1556" cy="148.195" rx="8.77302" ry="8.77252" fill="#2641FF"/>
<ellipse cx="94.1556" cy="120.163" rx="8.77302" ry="8.77252" fill="#2641FF"/>
</g>
<g opacity="0.998599">
<path d="M108.787 161.164V216.343H161.675V161.164H108.787Z" fill="#FF2D55"/>
<path d="M71.9248 213.624C68.0012 216.533 63.0589 215.637 60.1555 213.624C58.2097 212.21 57.4968 209.973 57.4972 208.688V203.348L74.8959 203.347V208.688C74.9222 210.466 73.4095 212.508 71.9248 213.624Z" fill="#DD002A"/>
<path d="M71.9248 185.591C68.0012 188.5 63.0589 187.604 60.1555 185.591C58.2097 184.177 57.4968 181.94 57.4972 180.654V175.314L74.8959 175.314V180.654C74.9222 182.433 73.4095 184.475 71.9248 185.591Z" fill="#DD002A"/>
<path d="M99.958 213.624C96.0344 216.533 91.0921 215.637 88.1888 213.624C86.2429 212.21 85.53 209.973 85.5304 208.688V203.348L102.929 203.347V208.688C102.955 210.466 101.443 212.508 99.958 213.624Z" fill="#DD002A"/>
<path d="M99.958 185.591C96.0344 188.5 91.0921 187.604 88.1888 185.591C86.2429 184.177 85.53 181.94 85.5304 180.654V175.314L102.929 175.314V180.654C102.955 182.433 101.443 184.475 99.958 185.591Z" fill="#DD002A"/>
<ellipse cx="66.1224" cy="203.195" rx="8.77302" ry="8.77252" fill="#FF5F7D"/>
<ellipse cx="66.1224" cy="175.163" rx="8.77302" ry="8.77252" fill="#FF5F7D"/>
<ellipse cx="94.1556" cy="203.195" rx="8.77302" ry="8.77252" fill="#FF5F7D"/>
<ellipse cx="94.1556" cy="175.163" rx="8.77302" ry="8.77252" fill="#FF5F7D"/>
</g>
<g opacity="0.998599">
<path d="M215.787 107.164V162.343H268.675V107.164H215.787Z" fill="#FF2D55"/>
<path d="M178.925 159.624C175.001 162.533 170.059 161.637 167.156 159.624C165.21 158.21 164.497 155.973 164.497 154.688V149.348L181.896 149.347V154.688C181.922 156.466 180.41 158.508 178.925 159.624Z" fill="#DD002A"/>
<path d="M178.925 131.591C175.001 134.5 170.059 133.604 167.156 131.591C165.21 130.177 164.497 127.94 164.497 126.654V121.314L181.896 121.314V126.654C181.922 128.433 180.41 130.475 178.925 131.591Z" fill="#DD002A"/>
<path d="M206.958 159.624C203.034 162.533 198.092 161.637 195.189 159.624C193.243 158.21 192.53 155.973 192.53 154.688V149.348L209.929 149.347V154.688C209.955 156.466 208.443 158.508 206.958 159.624Z" fill="#DD002A"/>
<path d="M206.958 131.591C203.034 134.5 198.092 133.604 195.189 131.591C193.243 130.177 192.53 127.94 192.53 126.654V121.314L209.929 121.314V126.654C209.955 128.433 208.443 130.475 206.958 131.591Z" fill="#DD002A"/>
<ellipse cx="173.122" cy="149.195" rx="8.77302" ry="8.77252" fill="#FF5F7D"/>
<ellipse cx="173.122" cy="121.163" rx="8.77302" ry="8.77252" fill="#FF5F7D"/>
<ellipse cx="201.156" cy="149.195" rx="8.77302" ry="8.77252" fill="#FF5F7D"/>
<ellipse cx="201.156" cy="121.163" rx="8.77302" ry="8.77252" fill="#FF5F7D"/>
</g>
<g opacity="0.998599">
<path d="M108.787 216.164V271.343H161.675V216.164H108.787Z" fill="#FF2D55"/>
<path d="M71.9248 268.624C68.0012 271.533 63.0589 270.637 60.1555 268.624C58.2097 267.21 57.4968 264.973 57.4972 263.688V258.348L74.8959 258.347V263.688C74.9222 265.466 73.4095 267.508 71.9248 268.624Z" fill="#DD002A"/>
<path d="M71.9248 240.591C68.0012 243.5 63.0589 242.604 60.1555 240.591C58.2097 239.177 57.4968 236.94 57.4972 235.654V230.314L74.8959 230.314V235.654C74.9222 237.433 73.4095 239.475 71.9248 240.591Z" fill="#DD002A"/>
<path d="M99.958 268.624C96.0344 271.533 91.0921 270.637 88.1888 268.624C86.2429 267.21 85.53 264.973 85.5304 263.688V258.348L102.929 258.347V263.688C102.955 265.466 101.443 267.508 99.958 268.624Z" fill="#DD002A"/>
<path d="M99.958 240.591C96.0344 243.5 91.0921 242.604 88.1888 240.591C86.2429 239.177 85.53 236.94 85.5304 235.654V230.314L102.929 230.314V235.654C102.955 237.433 101.443 239.475 99.958 240.591Z" fill="#DD002A"/>
<ellipse cx="66.1224" cy="258.195" rx="8.77302" ry="8.77252" fill="#FF5F7D"/>
<ellipse cx="66.1224" cy="230.163" rx="8.77302" ry="8.77252" fill="#FF5F7D"/>
<ellipse cx="94.1556" cy="258.195" rx="8.77302" ry="8.77252" fill="#FF5F7D"/>
<ellipse cx="94.1556" cy="230.163" rx="8.77302" ry="8.77252" fill="#FF5F7D"/>
</g>
<g opacity="0.998599">
<path d="M215.787 162.164V217.343H268.675V162.164H215.787Z" fill="#FF2D55"/>
<path d="M178.925 214.624C175.001 217.533 170.059 216.637 167.156 214.624C165.21 213.21 164.497 210.973 164.497 209.688V204.348L181.896 204.347V209.688C181.922 211.466 180.41 213.508 178.925 214.624Z" fill="#DD002A"/>
<path d="M178.925 186.591C175.001 189.5 170.059 188.604 167.156 186.591C165.21 185.177 164.497 182.94 164.497 181.654V176.314L181.896 176.314V181.654C181.922 183.433 180.41 185.475 178.925 186.591Z" fill="#DD002A"/>
<path d="M206.958 214.624C203.034 217.533 198.092 216.637 195.189 214.624C193.243 213.21 192.53 210.973 192.53 209.688V204.348L209.929 204.347V209.688C209.955 211.466 208.443 213.508 206.958 214.624Z" fill="#DD002A"/>
<path d="M206.958 186.591C203.034 189.5 198.092 188.604 195.189 186.591C193.243 185.177 192.53 182.94 192.53 181.654V176.314L209.929 176.314V181.654C209.955 183.433 208.443 185.475 206.958 186.591Z" fill="#DD002A"/>
<ellipse cx="173.122" cy="204.195" rx="8.77302" ry="8.77252" fill="#FF5F7D"/>
<ellipse cx="173.122" cy="176.163" rx="8.77302" ry="8.77252" fill="#FF5F7D"/>
<ellipse cx="201.156" cy="204.195" rx="8.77302" ry="8.77252" fill="#FF5F7D"/>
<ellipse cx="201.156" cy="176.163" rx="8.77302" ry="8.77252" fill="#FF5F7D"/>
</g>
<g opacity="0.998599">
<path d="M108.787 271.164V326.343H161.675V271.164H108.787Z" fill="#FF2D55"/>
<path d="M71.9248 323.624C68.0012 326.533 63.0589 325.637 60.1555 323.624C58.2097 322.21 57.4968 319.973 57.4972 318.688V313.348L74.8959 313.347V318.688C74.9222 320.466 73.4095 322.508 71.9248 323.624Z" fill="#DD002A"/>
<path d="M71.9248 295.591C68.0012 298.5 63.0589 297.604 60.1555 295.591C58.2097 294.177 57.4968 291.94 57.4972 290.654V285.314L74.8959 285.314V290.654C74.9222 292.433 73.4095 294.475 71.9248 295.591Z" fill="#DD002A"/>
<path d="M99.958 323.624C96.0344 326.533 91.0921 325.637 88.1888 323.624C86.2429 322.21 85.53 319.973 85.5304 318.688V313.348L102.929 313.347V318.688C102.955 320.466 101.443 322.508 99.958 323.624Z" fill="#DD002A"/>
<path d="M99.958 295.591C96.0344 298.5 91.0921 297.604 88.1888 295.591C86.2429 294.177 85.53 291.94 85.5304 290.654V285.314L102.929 285.314V290.654C102.955 292.433 101.443 294.475 99.958 295.591Z" fill="#DD002A"/>
<ellipse cx="66.1224" cy="313.195" rx="8.77302" ry="8.77252" fill="#FF5F7D"/>
<ellipse cx="66.1224" cy="285.163" rx="8.77302" ry="8.77252" fill="#FF5F7D"/>
<ellipse cx="94.1556" cy="313.195" rx="8.77302" ry="8.77252" fill="#FF5F7D"/>
<ellipse cx="94.1556" cy="285.163" rx="8.77302" ry="8.77252" fill="#FF5F7D"/>
</g>
<g opacity="0.998599">
<path d="M215.787 217.164V272.343H268.675V217.164H215.787Z" fill="#FF2D55"/>
<path d="M178.925 269.624C175.001 272.533 170.059 271.637 167.156 269.624C165.21 268.21 164.497 265.973 164.497 264.688V259.348L181.896 259.347V264.688C181.922 266.466 180.41 268.508 178.925 269.624Z" fill="#DD002A"/>
<path d="M178.925 241.591C175.001 244.5 170.059 243.604 167.156 241.591C165.21 240.177 164.497 237.94 164.497 236.654V231.314L181.896 231.314V236.654C181.922 238.433 180.41 240.475 178.925 241.591Z" fill="#DD002A"/>
<path d="M206.958 269.624C203.034 272.533 198.092 271.637 195.189 269.624C193.243 268.21 192.53 265.973 192.53 264.688V259.348L209.929 259.347V264.688C209.955 266.466 208.443 268.508 206.958 269.624Z" fill="#DD002A"/>
<path d="M206.958 241.591C203.034 244.5 198.092 243.604 195.189 241.591C193.243 240.177 192.53 237.94 192.53 236.654V231.314L209.929 231.314V236.654C209.955 238.433 208.443 240.475 206.958 241.591Z" fill="#DD002A"/>
<ellipse cx="173.122" cy="259.195" rx="8.77302" ry="8.77252" fill="#FF5F7D"/>
<ellipse cx="173.122" cy="231.163" rx="8.77302" ry="8.77252" fill="#FF5F7D"/>
<ellipse cx="201.156" cy="259.195" rx="8.77302" ry="8.77252" fill="#FF5F7D"/>
<ellipse cx="201.156" cy="231.163" rx="8.77302" ry="8.77252" fill="#FF5F7D"/>
</g>
<g opacity="0.998599">
<path d="M324.337 101.652V158.372H377.225V101.652H324.337Z" fill="#0023FF"/>
<path d="M285.936 155.653C282.013 158.561 277.07 157.665 274.167 155.653C272.221 154.238 271.508 152.002 271.509 150.716V145.376L288.907 145.375V150.716C288.934 152.495 287.421 154.537 285.936 155.653Z" fill="#001396"/>
<path d="M285.936 127.619C282.013 130.528 277.07 129.632 274.167 127.619C272.221 126.205 271.508 123.969 271.509 122.683V117.343L288.907 117.342V122.683C288.934 124.461 287.421 126.504 285.936 127.619Z" fill="#001396"/>
<path d="M313.97 155.653C310.046 158.561 305.104 157.665 302.2 155.653C300.254 154.238 299.541 152.002 299.542 150.716V145.376L316.941 145.375V150.716C316.967 152.495 315.454 154.537 313.97 155.653Z" fill="#001396"/>
<path d="M313.97 127.619C310.046 130.528 305.104 129.632 302.2 127.619C300.254 126.205 299.541 123.969 299.542 122.683V117.343L316.941 117.342V122.683C316.967 124.461 315.454 126.504 313.97 127.619Z" fill="#001396"/>
<ellipse cx="280.134" cy="145.223" rx="8.77302" ry="8.77252" fill="#2641FF"/>
<ellipse cx="280.134" cy="117.191" rx="8.77302" ry="8.77252" fill="#2641FF"/>
<ellipse cx="308.167" cy="145.223" rx="8.77302" ry="8.77252" fill="#2641FF"/>
<ellipse cx="308.167" cy="117.191" rx="8.77302" ry="8.77252" fill="#2641FF"/>
</g>
<g opacity="0.998599">
<path d="M108.787 51.6777V106.857H161.675V51.6777H108.787Z" fill="#0023FF"/>
<path d="M71.9248 104.138C68.0012 107.046 63.0589 106.151 60.1555 104.138C58.2097 102.724 57.4968 100.487 57.4972 99.2012V93.8611L74.8959 93.8606V99.2012C74.9222 100.98 73.4095 103.022 71.9248 104.138Z" fill="#001396"/>
<path d="M71.9248 76.1046C68.0012 79.0133 63.0589 78.1174 60.1555 76.1046C58.2097 74.6904 57.4968 72.4538 57.4972 71.168V65.8279L74.8959 65.8274V71.168C74.9222 72.9466 73.4095 74.9888 71.9248 76.1046Z" fill="#001396"/>
<path d="M99.958 104.138C96.0344 107.046 91.0921 106.151 88.1888 104.138C86.2429 102.724 85.53 100.487 85.5304 99.2012V93.8611L102.929 93.8606V99.2012C102.955 100.98 101.443 103.022 99.958 104.138Z" fill="#001396"/>
<path d="M99.958 76.1046C96.0344 79.0133 91.0921 78.1174 88.1888 76.1046C86.2429 74.6904 85.53 72.4538 85.5304 71.168V65.8279L102.929 65.8274V71.168C102.955 72.9466 101.443 74.9888 99.958 76.1046Z" fill="#001396"/>
<ellipse cx="66.1224" cy="93.7084" rx="8.77302" ry="8.77252" fill="#2641FF"/>
<ellipse cx="66.1224" cy="65.6762" rx="8.77302" ry="8.77252" fill="#2641FF"/>
<ellipse cx="94.1556" cy="93.7084" rx="8.77302" ry="8.77252" fill="#2641FF"/>
<ellipse cx="94.1556" cy="65.6762" rx="8.77302" ry="8.77252" fill="#2641FF"/>
</g>
<g opacity="0.998599">
<path d="M322.798 50.687V105.866H375.686V50.687H322.798Z" fill="#0023FF"/>
<path d="M285.936 103.147C282.013 106.056 277.07 105.16 274.167 103.147C272.221 101.733 271.508 99.4963 271.509 98.2105V92.8705L288.907 92.87V98.2105C288.934 99.9891 287.421 102.031 285.936 103.147Z" fill="#001396"/>
<path d="M285.936 75.1139C282.013 78.0226 277.07 77.1267 274.167 75.1139C272.221 73.6998 271.508 71.4631 271.509 70.1773V64.8373L288.907 64.8368V70.1773C288.934 71.9559 287.421 73.9982 285.936 75.1139Z" fill="#001396"/>
<path d="M313.97 103.147C310.046 106.056 305.104 105.16 302.2 103.147C300.254 101.733 299.541 99.4963 299.542 98.2105V92.8705L316.941 92.87V98.2105C316.967 99.9891 315.454 102.031 313.97 103.147Z" fill="#001396"/>
<path d="M313.97 75.1139C310.046 78.0226 305.104 77.1267 302.2 75.1139C300.254 73.6998 299.541 71.4631 299.542 70.1773V64.8373L316.941 64.8368V70.1773C316.967 71.9559 315.454 73.9982 313.97 75.1139Z" fill="#001396"/>
<ellipse cx="280.134" cy="92.7177" rx="8.77302" ry="8.77252" fill="#2641FF"/>
<ellipse cx="280.134" cy="64.6855" rx="8.77302" ry="8.77252" fill="#2641FF"/>
<ellipse cx="308.167" cy="92.7177" rx="8.77302" ry="8.77252" fill="#2641FF"/>
<ellipse cx="308.167" cy="64.6855" rx="8.77302" ry="8.77252" fill="#2641FF"/>
</g>
<g opacity="0.998599">
<path d="M108.787 -2.80873V52.3704H161.675V-2.80873H108.787Z" fill="#0023FF"/>
<path d="M71.9248 49.6514C68.0012 52.5601 63.0589 51.6642 60.1555 49.6514C58.2097 48.2372 57.4968 46.0006 57.4972 44.7148V39.3747L74.8959 39.3742V44.7148C74.9222 46.4934 73.4095 48.5356 71.9248 49.6514Z" fill="#001396"/>
<path d="M71.9248 21.6182C68.0012 24.5269 63.0589 23.631 60.1555 21.6182C58.2097 20.204 57.4968 17.9674 57.4972 16.6816V11.3415L74.8959 11.341V16.6816C74.9222 18.4602 73.4095 20.5024 71.9248 21.6182Z" fill="#001396"/>
<path d="M99.958 49.6514C96.0344 52.5601 91.0921 51.6642 88.1888 49.6514C86.2429 48.2372 85.53 46.0006 85.5304 44.7148V39.3747L102.929 39.3742V44.7148C102.955 46.4934 101.443 48.5356 99.958 49.6514Z" fill="#001396"/>
<path d="M99.958 21.6182C96.0344 24.5269 91.0921 23.631 88.1888 21.6182C86.2429 20.204 85.53 17.9674 85.5304 16.6816V11.3415L102.929 11.341V16.6816C102.955 18.4602 101.443 20.5024 99.958 21.6182Z" fill="#001396"/>
<ellipse cx="66.1224" cy="39.222" rx="8.77302" ry="8.77252" fill="#2641FF"/>
<ellipse cx="66.1224" cy="11.1898" rx="8.77302" ry="8.77252" fill="#2641FF"/>
<ellipse cx="94.1556" cy="39.222" rx="8.77302" ry="8.77252" fill="#2641FF"/>
<ellipse cx="94.1556" cy="11.1898" rx="8.77302" ry="8.77252" fill="#2641FF"/>
</g>
<g opacity="0.998599">
<path d="M322.798 -2.80873V52.3704H375.686V-2.80873H322.798Z" fill="#0023FF"/>
<path d="M285.936 49.6514C282.013 52.5601 277.07 51.6642 274.167 49.6514C272.221 48.2372 271.508 46.0006 271.509 44.7148V39.3747L288.907 39.3742V44.7148C288.934 46.4934 287.421 48.5356 285.936 49.6514Z" fill="#001396"/>
<path d="M285.936 21.6182C282.013 24.5269 277.07 23.631 274.167 21.6182C272.221 20.204 271.508 17.9674 271.509 16.6816V11.3415L288.907 11.341V16.6816C288.934 18.4602 287.421 20.5024 285.936 21.6182Z" fill="#001396"/>
<path d="M313.97 49.6514C310.046 52.5601 305.104 51.6642 302.2 49.6514C300.254 48.2372 299.541 46.0006 299.542 44.7148V39.3747L316.941 39.3742V44.7148C316.967 46.4934 315.454 48.5356 313.97 49.6514Z" fill="#001396"/>
<path d="M313.97 21.6182C310.046 24.5269 305.104 23.631 302.2 21.6182C300.254 20.204 299.541 17.9674 299.542 16.6816V11.3415L316.941 11.341V16.6816C316.967 18.4602 315.454 20.5024 313.97 21.6182Z" fill="#001396"/>
<ellipse cx="280.134" cy="39.222" rx="8.77302" ry="8.77252" fill="#2641FF"/>
<ellipse cx="280.134" cy="11.1898" rx="8.77302" ry="8.77252" fill="#2641FF"/>
<ellipse cx="308.167" cy="39.222" rx="8.77302" ry="8.77252" fill="#2641FF"/>
<ellipse cx="308.167" cy="11.1898" rx="8.77302" ry="8.77252" fill="#2641FF"/>
</g>
<g opacity="0.998599">
<path d="M340.538 211.129C336.614 214.038 331.672 213.142 328.769 211.129C326.823 209.715 326.11 207.478 326.111 206.193V200.853L343.509 200.852V206.193C343.536 207.971 342.023 210.014 340.538 211.129Z" fill="#001396"/>
<path d="M340.538 183.096C336.614 186.005 331.672 185.109 328.769 183.096C326.823 181.682 326.11 179.445 326.111 178.159V172.819L343.509 172.819V178.159C343.536 179.938 342.023 181.98 340.538 183.096Z" fill="#001396"/>
<path d="M368.571 211.129C364.648 214.038 359.705 213.142 356.802 211.129C354.856 209.715 354.143 207.478 354.144 206.193V200.853L371.542 200.852V206.193C371.569 207.971 370.056 210.014 368.571 211.129Z" fill="#001396"/>
<path d="M368.571 183.096C364.648 186.005 359.705 185.109 356.802 183.096C354.856 181.682 354.143 179.445 354.144 178.159V172.819L371.542 172.819V178.159C371.569 179.938 370.056 181.98 368.571 183.096Z" fill="#001396"/>
<ellipse cx="334.736" cy="200.7" rx="8.77302" ry="8.77252" fill="#2641FF"/>
<ellipse cx="334.736" cy="172.668" rx="8.77302" ry="8.77252" fill="#2641FF"/>
<ellipse cx="362.769" cy="200.7" rx="8.77302" ry="8.77252" fill="#2641FF"/>
<ellipse cx="362.769" cy="172.668" rx="8.77302" ry="8.77252" fill="#2641FF"/>
</g>
<g opacity="0.998599">
<path d="M340.538 266.129C336.614 269.038 331.672 268.142 328.769 266.129C326.823 264.715 326.11 262.478 326.111 261.193V255.853L343.509 255.852V261.193C343.536 262.971 342.023 265.014 340.538 266.129Z" fill="#001396"/>
<path d="M340.538 238.096C336.614 241.005 331.672 240.109 328.769 238.096C326.823 236.682 326.11 234.445 326.111 233.159V227.819L343.509 227.819V233.159C343.536 234.938 342.023 236.98 340.538 238.096Z" fill="#001396"/>
<path d="M368.571 266.129C364.648 269.038 359.705 268.142 356.802 266.129C354.856 264.715 354.143 262.478 354.144 261.193V255.853L371.542 255.852V261.193C371.569 262.971 370.056 265.014 368.571 266.129Z" fill="#001396"/>
<path d="M368.571 238.096C364.648 241.005 359.705 240.109 356.802 238.096C354.856 236.682 354.143 234.445 354.144 233.159V227.819L371.542 227.819V233.159C371.569 234.938 370.056 236.98 368.571 238.096Z" fill="#001396"/>
<ellipse cx="334.736" cy="255.7" rx="8.77302" ry="8.77252" fill="#2641FF"/>
<ellipse cx="334.736" cy="227.668" rx="8.77302" ry="8.77252" fill="#2641FF"/>
<ellipse cx="362.769" cy="255.7" rx="8.77302" ry="8.77252" fill="#2641FF"/>
<ellipse cx="362.769" cy="227.668" rx="8.77302" ry="8.77252" fill="#2641FF"/>
</g>
<g opacity="0.998599">
<path d="M340.538 321.129C336.614 324.038 331.672 323.142 328.769 321.129C326.823 319.715 326.11 317.478 326.111 316.193V310.853L343.509 310.852V316.193C343.536 317.971 342.023 320.014 340.538 321.129Z" fill="#001396"/>
<path d="M340.538 293.096C336.614 296.005 331.672 295.109 328.769 293.096C326.823 291.682 326.11 289.445 326.111 288.159V282.819L343.509 282.819V288.159C343.536 289.938 342.023 291.98 340.538 293.096Z" fill="#001396"/>
<path d="M368.571 321.129C364.648 324.038 359.705 323.142 356.802 321.129C354.856 319.715 354.143 317.478 354.144 316.193V310.853L371.542 310.852V316.193C371.569 317.971 370.056 320.014 368.571 321.129Z" fill="#001396"/>
<path d="M368.571 293.096C364.648 296.005 359.705 295.109 356.802 293.096C354.856 291.682 354.143 289.445 354.144 288.159V282.819L371.542 282.819V288.159C371.569 289.938 370.056 291.98 368.571 293.096Z" fill="#001396"/>
<ellipse cx="334.736" cy="310.7" rx="8.77302" ry="8.77252" fill="#2641FF"/>
<ellipse cx="334.736" cy="282.668" rx="8.77302" ry="8.77252" fill="#2641FF"/>
<ellipse cx="362.769" cy="310.7" rx="8.77302" ry="8.77252" fill="#2641FF"/>
<ellipse cx="362.769" cy="282.668" rx="8.77302" ry="8.77252" fill="#2641FF"/>
</g>
<path d="M53.6074 328.634H106.494V337.998L53.6074 338.021V328.634Z" fill="#DD002A"/>
<path d="M160.607 274.634H213.494V283.998L160.607 284.021V274.634Z" fill="#DD002A"/>
<path d="M0 274.92H53.4258V284.998L0 285.021V274.92Z" fill="#07A631"/>
<path d="M268 327.92H321.426V337.998L268 338.021V327.92Z" fill="#07A631"/>
<path d="M213.959 273.271H267.416V282.998L213.959 283.021V273.271Z" fill="#C66200"/>
<path d="M106.416 332.92H159.914V342.998L106.416 343.021V332.92Z" fill="#07A631"/>
<path d="M321.426 326.189L375.109 326.162V335.978H321.426V326.189Z" fill="#001396"/>
</svg>
